<svg width="16" height="16" viewBox="0 0 16 16" fill="none" xmlns="http://www.w3.org/2000/svg">
<path d="M11.5 0.999756H7.5C6.8372 1.00053 6.20176 1.26418 5.73309 1.73285C5.26442 2.20152 5.00078 2.83695 5 3.49976H4.5C3.8372 3.50053 3.20176 3.76418 2.73309 4.23285C2.26442 4.70152 2.00078 5.33695 2 5.99976V12.5027C2.00078 13.1655 2.26442 13.8009 2.73309 14.2696C3.20177 14.7383 3.8372 15.0019 4.5 15.0027H8.5C9.1628 15.0019 9.79823 14.7383 10.2669 14.2696C10.7356 13.8009 10.9992 13.1655 11 12.5027V12.5012H11.5C12.1628 12.5004 12.7982 12.2368 13.2669 11.7681C13.7356 11.2995 13.9992 10.664 14 10.0012V3.49976C13.9992 2.83695 13.7356 2.20152 13.2669 1.73285C12.7982 1.26418 12.1628 1.00054 11.5 0.999756ZM10 12.5027C9.99956 12.9004 9.84139 13.2817 9.56018 13.5629C9.27897 13.8441 8.89769 14.0022 8.5 14.0027H4.5C4.10231 14.0023 3.72103 13.8441 3.43982 13.5629C3.15861 13.2817 3.00043 12.9004 3 12.5027V5.99976C3.00043 5.60206 3.15861 5.22079 3.43982 4.93958C3.72103 4.65837 4.10231 4.50019 4.5 4.49976H8.5C8.89769 4.50019 9.27897 4.65837 9.56018 4.93958C9.84139 5.22079 9.99957 5.60206 10 5.99976V12.5027ZM13 10.0012C12.9996 10.3989 12.8414 10.7802 12.5602 11.0614C12.279 11.3426 11.8977 11.5008 11.5 11.5012H11V5.99976C10.9992 5.33695 10.7356 4.70152 10.2669 4.23285C9.79823 3.76418 9.1628 3.50054 8.5 3.49976H6C6.00043 3.10206 6.15861 2.72079 6.43982 2.43958C6.72103 2.15836 7.10231 2.00019 7.5 1.99976H11.5C11.8977 2.00019 12.279 2.15836 12.5602 2.43958C12.8414 2.72079 12.9996 3.10206 13 3.49976V10.0012Z" fill="black" fill-opacity="0.95"/>
</svg>
