<svg width="24" height="24" viewBox="0 0 24 24" fill="none" xmlns="http://www.w3.org/2000/svg">
<path d="M16.5 6H9.5C8.43913 6 7.42172 6.42143 6.67157 7.17157C5.92143 7.92172 5.5 8.93913 5.5 10V12.5C5.49996 12.7627 5.55167 13.0227 5.65216 13.2654C5.75266 13.5081 5.89997 13.7286 6.0857 13.9143C6.27142 14.1 6.49192 14.2473 6.73459 14.3478C6.97726 14.4483 7.23735 14.5 7.5 14.5L11.0005 14.4995L11 16.4995C10.993 16.865 11.1227 17.2199 11.3638 17.4947C11.6049 17.7695 11.9398 17.9443 12.3031 17.985C12.3735 17.9944 12.4445 17.9991 12.5155 17.9992C12.8452 18.0017 13.1661 17.893 13.4263 17.6906C13.6866 17.4882 13.8709 17.2039 13.9496 16.8837C14.3959 15.2162 14.8124 13.6796 14.9974 12.9987L16.5 13C17.0303 12.9994 17.5386 12.7885 17.9136 12.4136C18.2885 12.0386 18.4994 11.5303 18.5 11V8C18.4994 7.46974 18.2885 6.96136 17.9136 6.58642C17.5386 6.21147 17.0303 6.00057 16.5 6ZM12.9838 16.625C12.9531 16.7426 12.8806 16.845 12.7799 16.9131C12.6792 16.9811 12.5571 17.0101 12.4366 16.9947C12.316 16.9793 12.2052 16.9205 12.1248 16.8293C12.0445 16.7381 12.0001 16.6207 12 16.4992L12.0005 14.2992C12.0073 14.1967 11.993 14.094 11.9584 13.9973C11.9239 13.9006 11.8698 13.812 11.7996 13.7371C11.7295 13.6621 11.6446 13.6024 11.5504 13.5615C11.4562 13.5207 11.3546 13.4996 11.2519 13.4997L7.5004 13.5C7.23518 13.5 6.98043 13.3946 6.79289 13.2071C6.60536 13.0196 6.5 12.7652 6.5 12.5V10C6.5 9.20435 6.81607 8.44129 7.37868 7.87868C7.94129 7.31607 8.70435 7 9.5 7H14V12.8555C13.8019 13.585 13.4064 15.0447 12.9838 16.625ZM17.5 11C17.4997 11.265 17.3943 11.5192 17.207 11.7066C17.0196 11.8941 16.7655 11.9996 16.5005 12L15 11.9988V7H16.5C16.7651 7.0003 17.0193 7.10576 17.2068 7.29323C17.3942 7.4807 17.4997 7.73488 17.5 8V11Z" fill="black" fill-opacity="0.7"/>
</svg>
