<svg width="24" height="24" viewBox="0 0 24 24" fill="none" xmlns="http://www.w3.org/2000/svg">
<path d="M16.5 9.49837L12.9995 9.49887L13 7.49932C12.9998 7.13519 12.8672 6.78356 12.6269 6.51001C12.3866 6.23645 12.055 6.05965 11.6939 6.01259C11.3328 5.96552 10.967 6.0514 10.6645 6.25421C10.3621 6.45702 10.1438 6.7629 10.0503 7.11482C9.6045 8.78252 9.1875 10.3192 9.00295 10.9998L7.5 10.9984C6.96974 10.9989 6.46136 11.2098 6.08642 11.5848C5.71147 11.9597 5.50057 12.4681 5.5 12.9984V15.9984C5.50057 16.5286 5.71147 17.037 6.08642 17.412C6.46136 17.7869 6.96974 17.9978 7.5 17.9984H14.5005C15.5613 17.9982 16.5786 17.5767 17.3286 16.8266C18.0786 16.0765 18.5 15.0591 18.5 13.9984V11.4984C18.4994 10.9681 18.2885 10.4597 17.9136 10.0848C17.5386 9.70983 17.0303 9.49894 16.5 9.49837ZM6.5 15.9984V12.9984C6.50028 12.7333 6.60565 12.4792 6.79302 12.2917C6.98039 12.1043 7.23446 11.9988 7.4995 11.9984L9 11.9997V16.9983H7.5C7.23489 16.998 6.98072 16.8926 6.79325 16.7051C6.60578 16.5176 6.50032 16.2635 6.5 15.9984ZM17.5 13.9984C17.5 14.794 17.1839 15.5571 16.6213 16.1197C16.0587 16.6823 15.2956 16.9984 14.5 16.9984H9.99995V11.1434C10.1981 10.414 10.5937 8.95392 11.016 7.37302C11.0466 7.25523 11.1191 7.15264 11.2199 7.08448C11.3207 7.01632 11.443 6.98726 11.5637 7.00275C11.6844 7.01824 11.7953 7.07723 11.8756 7.16864C11.9559 7.26005 12.0002 7.37762 12 7.49932L11.9995 9.70002C11.9928 9.80242 12.0072 9.9051 12.0418 10.0017C12.0764 10.0983 12.1304 10.1868 12.2006 10.2617C12.2707 10.3366 12.3555 10.3963 12.4497 10.437C12.5439 10.4778 12.6454 10.4989 12.748 10.4989L16.5 10.4984C16.7651 10.4987 17.0193 10.6041 17.2068 10.7916C17.3942 10.9791 17.4997 11.2332 17.5 11.4984V13.9984Z" fill="black" fill-opacity="0.7"/>
</svg>
